<svg xmlns="http://www.w3.org/2000/svg" fill="none" viewBox="3.36 27.64 78.28 88.32">
<path d="M55.776 85.624C53.408 87.672 50.304 89.24 46.464 90.328C42.688 91.416 38.592 91.96 34.176 91.96C25.152 91.96 17.76 88.984 12 83.032C6.24 77.08 3.36 69.528 3.36 60.376C3.36 54.936 4.512 49.72 6.816 44.728C9.12 39.672 12.512 35.576 16.992 32.44C21.536 29.24 27.104 27.64 33.696 27.64C38.944 27.64 43.36 28.344 46.944 29.752C50.592 31.16 53.6 32.92 55.968 35.032L57.6 47.704L50.304 48.472L48.576 39.544C46.72 38.264 44.608 37.272 42.24 36.568C39.872 35.8 37.12 35.416 33.984 35.416C27.584 35.416 22.432 37.656 18.528 42.136C14.624 46.616 12.672 52.536 12.672 59.896C12.672 67.512 14.688 73.464 18.72 77.752C22.816 82.04 28.288 84.184 35.136 84.184C40.448 84.184 44.832 83.256 48.288 81.4L49.92 72.184L57.216 72.952L55.776 85.624Z" fill="#F9B028"/>
<path d="M29.224 109.624C31.592 111.672 34.696 113.24 38.536 114.328C42.312 115.416 46.408 115.96 50.824 115.96C59.848 115.96 67.24 112.984 73 107.032C78.76 101.08 81.64 93.528 81.64 84.376C81.64 78.936 80.488 73.72 78.184 68.728C75.88 63.672 72.488 59.576 68.008 56.44C63.464 53.24 57.896 51.64 51.304 51.64C46.056 51.64 41.64 52.344 38.056 53.752C34.408 55.16 31.4 56.92 29.032 59.032L27.4 71.704L34.696 72.472L36.424 63.544C38.28 62.264 40.392 61.272 42.76 60.568C45.128 59.8 47.88 59.416 51.016 59.416C57.416 59.416 62.568 61.656 66.472 66.136C70.376 70.616 72.328 76.536 72.328 83.896C72.328 91.512 70.312 97.464 66.28 101.752C62.184 106.04 56.712 108.184 49.864 108.184C44.552 108.184 40.168 107.256 36.712 105.4L35.08 96.184L27.784 96.952L29.224 109.624Z" fill="#EC7373"/>
</svg>